HIERARCHY
ROOT joint_Root
{
	OFFSET 0.0 0.0 0.0
	CHANNELS 6 Xposition Yposition Zposition Zrotation Xrotation Yrotation 
	JOINT Hips
	{
		OFFSET -0.726466 93.3139 -2.00062
		CHANNELS 6 Xposition Yposition Zposition Zrotation Xrotation Yrotation 
		JOINT Spine
		{
			OFFSET 15.7357 0.0 0.0
			CHANNELS 6 Xposition Yposition Zposition Zrotation Xrotation Yrotation 
			JOINT Chest
			{
				OFFSET 8.98455 -0.406207 0.0
				CHANNELS 6 Xposition Yposition Zposition Zrotation Xrotation Yrotation 
				JOINT Neck
				{
					OFFSET 16.3773 0.0 0.0
					CHANNELS 6 Xposition Yposition Zposition Zrotation Xrotation Yrotation 
					JOINT Head
					{
						OFFSET 6.45672 0.0 0.0
						CHANNELS 6 Xposition Yposition Zposition Zrotation Xrotation Yrotation 
						End Site
						{
							OFFSET 0.0 0.0 0.0
						}
					}
				}
				JOINT Shoulder_L
				{
					OFFSET 12.9942 -0.242716 4.98039
					CHANNELS 6 Xposition Yposition Zposition Zrotation Xrotation Yrotation 
					JOINT UpperArm_L
					{
						OFFSET 5.34809 0.0 0.0
						CHANNELS 6 Xposition Yposition Zposition Zrotation Xrotation Yrotation 
						JOINT LowerArm_L
						{
							OFFSET 24.3286 1.87007e-05 0.0
							CHANNELS 6 Xposition Yposition Zposition Zrotation Xrotation Yrotation 
							JOINT Hand_L
							{
								OFFSET 22.2916 0.0 0.0
								CHANNELS 6 Xposition Yposition Zposition Zrotation Xrotation Yrotation 
								End Site
								{
									OFFSET 0.0 0.0 0.0
								}
							}
						}
					}
				}
				JOINT Shoulder_R
				{
					OFFSET 12.9945 -0.242716 -4.98039
					CHANNELS 6 Xposition Yposition Zposition Zrotation Xrotation Yrotation 
					JOINT UpperArm_R
					{
						OFFSET -5.34813 0.0 0.0
						CHANNELS 6 Xposition Yposition Zposition Zrotation Xrotation Yrotation 
						JOINT LowerArm_R
						{
							OFFSET -24.3289 0.000322201 0.0
							CHANNELS 6 Xposition Yposition Zposition Zrotation Xrotation Yrotation 
							JOINT Hand_R
							{
								OFFSET -22.2915 -0.000108084 0.0
								CHANNELS 6 Xposition Yposition Zposition Zrotation Xrotation Yrotation 
								End Site
								{
									OFFSET 0.0 0.0 0.0
								}
							}
						}
					}
				}
			}
		}
		JOINT UpperLeg_L
		{
			OFFSET -2.19248 -6.46944 0.0
			CHANNELS 6 Xposition Yposition Zposition Zrotation Xrotation Yrotation 
			JOINT LowerLeg_L
			{
				OFFSET 39.0811 0.0 -1.23785e-05
				CHANNELS 6 Xposition Yposition Zposition Zrotation Xrotation Yrotation 
				JOINT Foot_L
				{
					OFFSET 40.9854 0.0 -1.26872e-05
					CHANNELS 6 Xposition Yposition Zposition Zrotation Xrotation Yrotation 
					JOINT Toes_L
					{
						OFFSET 11.7543 0.0 0.0
						CHANNELS 6 Xposition Yposition Zposition Zrotation Xrotation Yrotation 
						End Site
						{
							OFFSET 0.0 0.0 0.0
						}
					}
				}
			}
		}
		JOINT UpperLeg_R
		{
			OFFSET -2.19251 6.46944 0.0
			CHANNELS 6 Xposition Yposition Zposition Zrotation Xrotation Yrotation 
			JOINT LowerLeg_R
			{
				OFFSET -39.0811 -0.00228153 -0.0401928
				CHANNELS 6 Xposition Yposition Zposition Zrotation Xrotation Yrotation 
				JOINT Foot_R
				{
					OFFSET -40.9854 0.0 0.0
					CHANNELS 6 Xposition Yposition Zposition Zrotation Xrotation Yrotation 
					JOINT Toes_R
					{
						OFFSET -11.7543 0.0 0.0
						CHANNELS 6 Xposition Yposition Zposition Zrotation Xrotation Yrotation 
						End Site
						{
							OFFSET 0.0 0.0 0.0
						}
					}
				}
			}
		}
	}
}
MOTION
Frames:	4
Frame Time:	0.0333333
0.000000 0.000000 0.000000 0.000000 0.000000 -0.000000 -1.051740 92.176500 0.013905 88.091100 -0.574262 5.024280 15.735700 0.000005 -0.000001 87.858800 85.053000 -87.765800 8.984550 -0.406207 -0.000000 2.121350 -0.373984 0.192727 16.377300 -0.000001 -0.000001 7.296430 -2.571760 0.626141 6.456720 -0.000001 -0.000000 2.263150 -1.699120 -0.745410 12.994200 -0.242716 4.980390 -89.946400 -0.165907 -72.081000 5.348090 -0.000007 -0.000001 -67.651100 40.071700 -13.496600 24.328600 0.000019 0.000005 0.448797 1.044740 -23.246800 22.291600 -0.000001 0.000005 5.462780 5.487850 -6.051750 12.994500 -0.242716 -4.980390 87.528200 7.110730 -70.775300 -5.348130 -0.000001 -0.000004 -67.663900 36.196600 -14.566300 -24.328900 0.000322 -0.000009 2.204680 6.749680 -18.144300 -22.291500 -0.000108 -0.000004 7.213170 5.309560 -0.197303 -2.192480 -6.469440 -0.000000 -175.282000 -5.351190 -1.299500 39.081100 -0.000007 -0.000012 -0.122080 0.285169 23.175700 40.985400 -0.000006 -0.000013 -0.634419 2.716940 -67.058200 11.754300 -0.000000 0.000003 -0.000054 -0.000605 -16.601000 -2.192510 6.469440 -0.000001 179.735000 12.619500 -179.207000 -39.081100 -0.002282 -0.040193 -0.015510 0.050825 20.329700 -40.985400 0.000008 0.000006 4.133390 6.286350 -66.674200 -11.754300 -0.000006 -0.000006 -0.007990 -0.087949 -20.154400
0.000000 0.000000 0.000000 0.000000 0.000000 -0.000000 -1.060220 92.164600 0.024960 88.109400 -0.477848 5.102070 15.735700 0.000005 -0.000001 87.656900 85.047300 -87.613100 8.984550 -0.406207 -0.000000 2.131310 -0.406839 0.095081 16.377300 -0.000001 -0.000001 7.298190 -2.567810 0.594432 6.456720 -0.000001 -0.000000 2.261580 -1.680150 -0.777095 12.994200 -0.242716 4.980390 -89.945400 -0.168690 -72.058900 5.348090 -0.000007 -0.000001 -67.590900 40.048700 -13.505000 24.328600 0.000019 0.000005 0.442937 1.028550 -23.298100 22.291600 -0.000001 0.000005 5.405130 5.486390 -5.994950 12.994500 -0.242716 -4.980390 87.510100 7.139640 -70.717100 -5.348130 -0.000001 -0.000004 -67.342300 35.823800 -14.775600 -24.328900 0.000322 -0.000009 2.370400 6.880430 -19.069300 -22.291500 -0.000108 -0.000004 6.818660 5.302480 0.002720 -2.192480 -6.469440 -0.000000 -175.299000 -5.181690 -1.252530 39.081100 -0.000007 -0.000012 -0.121559 0.283171 23.232800 40.985400 -0.000006 -0.000013 -0.643757 2.716390 -67.094700 11.754300 -0.000000 0.000003 -0.000046 -0.000521 -16.597800 -2.192510 6.469440 -0.000001 179.676000 12.815300 -179.149000 -39.081100 -0.002282 -0.040193 -0.015602 0.050811 20.425400 -40.985400 0.000008 0.000006 4.204180 6.364620 -66.756900 -11.754300 -0.000006 -0.000006 -0.008222 -0.089835 -20.231500
0.000000 0.000000 0.000000 0.000000 0.000000 -0.000000 -1.068630 92.166300 0.043638 88.123400 -0.437181 5.200360 15.735700 0.000005 -0.000001 87.713800 85.024300 -87.714500 8.984550 -0.406207 -0.000000 2.177430 -0.396656 0.006080 16.377300 -0.000001 -0.000001 7.268050 -2.540910 0.535654 6.456720 -0.000001 -0.000000 2.189880 -1.690620 -0.824506 12.994200 -0.242716 4.980390 -89.941200 -0.181246 -72.023000 5.348090 -0.000007 -0.000001 -67.551300 40.077300 -13.525400 24.328600 0.000019 0.000005 0.405015 0.937077 -23.373400 22.291600 -0.000001 0.000005 5.467810 5.485750 -5.969950 12.994500 -0.242716 -4.980390 87.463700 7.220130 -70.585100 -5.348130 -0.000001 -0.000004 -66.963300 34.628200 -15.089400 -24.328900 0.000322 -0.000009 2.612390 6.877280 -20.866800 -22.291500 -0.000108 -0.000004 6.343050 5.297170 0.151735 -2.192480 -6.469440 -0.000000 -175.284000 -5.283240 -1.127990 39.081100 -0.000007 -0.000012 -0.123137 0.287311 23.199400 40.985400 -0.000006 -0.000013 -0.629761 2.794160 -67.084900 11.754300 -0.000000 0.000003 -0.000056 -0.000624 -16.601700 -2.192510 6.469440 -0.000001 179.643000 12.852500 -179.024000 -39.081100 -0.002282 -0.040193 -0.012299 0.041974 20.412000 -40.985400 0.000008 0.000006 4.263910 6.377100 -66.778300 -11.754300 -0.000006 -0.000006 -0.007999 -0.088028 -20.157700
0.000000 0.000000 0.000000 0.000000 0.000000 -0.000000 -1.056380 92.159600 0.019306 88.102500 -0.487353 5.213730 15.735700 0.000005 -0.000001 87.523600 85.035300 -87.548800 8.984550 -0.406207 -0.000000 2.153990 -0.427492 -0.042431 16.377300 -0.000001 -0.000001 7.255290 -2.477100 0.466223 6.456720 -0.000001 -0.000000 2.153210 -1.584050 -0.936265 12.994200 -0.242716 4.980390 -89.933500 -0.204180 -71.958500 5.348090 -0.000007 -0.000001 -67.626000 40.084200 -13.438500 24.328600 0.000019 0.000005 0.399691 0.926283 -23.339100 22.291600 -0.000001 0.000005 5.578220 5.488590 -6.080650 12.994500 -0.242716 -4.980390 87.424700 7.265380 -70.421700 -5.348130 -0.000001 -0.000004 -66.314500 33.043500 -15.880100 -24.328900 0.000322 -0.000009 3.120480 7.181740 -23.564600 -22.291500 -0.000108 -0.000004 6.310610 5.310360 -0.219612 -2.192480 -6.469440 -0.000000 -175.276000 -5.245070 -1.152910 39.081100 -0.000007 -0.000012 -0.122163 0.284082 23.269200 40.985400 -0.000006 -0.000013 -0.624073 2.772170 -67.116900 11.754300 -0.000000 0.000003 -0.000048 -0.000548 -16.598800 -2.192510 6.469440 -0.000001 179.668000 12.810300 -179.076000 -39.081100 -0.002282 -0.040193 -0.012295 0.041805 20.482500 -40.985400 0.000008 0.000006 4.272230 6.345400 -66.782800 -11.754300 -0.000006 -0.000006 -0.008147 -0.089232 -20.206800
